<svg id="Capa_1" enable-background="new 0 0 512 512" height="512" viewBox="0 0 512 512" width="512" xmlns="http://www.w3.org/2000/svg"><g><path d="m322.058 256.316c4.032-6.034 7.25-12.653 9.505-19.701 12.474-3.333 21.516-14.797 21.984-28.467 4.61-4.01 7.534-9.913 7.534-16.488 0-6.564-2.913-12.457-7.509-16.466v-76.132c0-7.245-2.53-14.236-7.125-19.685-9.923-11.77-26.557-13.656-38.695-4.387l-1.982 1.515c-5.792-9.151-15.73-14.974-26.719-14.974h-71.647c-26.426 0-47.925 22.443-47.925 50.029v63.633c-4.596 4.01-7.509 9.903-7.509 16.467 0 6.576 2.923 12.478 7.534 16.488.474 13.554 9.548 25.104 21.98 28.458 2.255 7.051 5.474 13.673 9.508 19.71-13.273 5.023-25.158 13.525-34.195 24.643-11.634 14.312-18.04 32.37-18.04 50.847v105.854c0 7.181 5.843 13.023 13.024 13.023h209.488c7.182 0 13.024-5.843 13.024-13.023v-71.806c0-4.143-3.357-7.5-7.5-7.5s-7.5 3.357-7.5 7.5v69.829h-205.537v-103.878c0-15.041 5.214-29.739 14.68-41.386 7.748-9.531 18.058-16.705 29.549-20.693l23.696 67.629c2.508 7.163 11.219 9.827 17.304 5.388l17.54-12.801 17.541 12.801c6.097 4.448 14.8 1.76 17.302-5.385l23.697-67.632c11.491 3.987 21.801 11.161 29.549 20.693 9.466 11.646 14.68 26.345 14.68 41.386v4.125c0 4.143 3.357 7.5 7.5 7.5s7.5-3.357 7.5-7.5v-4.125c0-18.477-6.406-36.534-18.04-50.847-9.038-11.117-20.923-19.62-34.196-24.642zm-65.534 49.341-8.477-14.682c2.786.3 5.612.463 8.477.463s5.69-.163 8.477-.463zm0-29.218c-35.164 0-63.772-28.608-63.772-63.773v-61.716c0-15.892 16.564-22.884 27.653-14.401 24.061 18.402 50.014 23.135 77.144 14.063 5.328-1.783 11.023-.991 15.626 2.168 4.374 3.003 7.122 7.822 7.122 13.555v46.331c0 35.164-28.609 63.773-63.773 63.773zm82.702-91.634c3.779 0 6.854 3.075 6.854 6.855 0 3.779-3.075 6.854-6.854 6.854h-3.929v-13.71h3.929zm-3.951 28.71h1.988c-.548 1.298-1.254 2.499-2.098 3.576.066-1.185.098-2.378.11-3.576zm-127.873-136.984h71.647c7.674 0 14.419 5.569 16.402 13.543.61 2.45 2.413 4.43 4.796 5.266 2.382.836 5.027.415 7.035-1.117l9.572-7.311c5.661-4.324 13.452-3.407 18.123 2.134 2.316 2.747 3.593 6.305 3.593 10.016v70.743h-3.274c-.242-1.059 2.347-18.42-13.633-29.393-8.393-5.761-19.185-7.265-28.873-4.027-22.433 7.503-43.128 3.656-63.272-11.751-20.745-15.868-51.767-2.233-51.767 26.315v18.855h-3.274v-58.244c.001-19.315 14.77-35.029 32.925-35.029zm-29.65 121.984h-3.929c-3.779 0-6.854-3.075-6.854-6.855 0-3.779 3.075-6.854 6.854-6.854h3.929zm-1.952 15h1.973c.013 1.186.042 2.367.107 3.54-.834-1.069-1.534-2.258-2.08-3.54zm58.384 114.162-16.25-46.378c3.181 1.796 6.498 3.373 9.932 4.719l18.795 32.554zm44.681 0-12.477-9.105 18.795-32.554c3.434-1.346 6.751-2.923 9.932-4.719z"/><path d="m223.835 174.838c-4.143 0-7.5 3.357-7.5 7.5v7.862c0 4.143 3.357 7.5 7.5 7.5s7.5-3.357 7.5-7.5v-7.862c0-4.143-3.357-7.5-7.5-7.5z"/><path d="m289.214 174.838c-4.143 0-7.5 3.357-7.5 7.5v7.862c0 4.143 3.357 7.5 7.5 7.5s7.5-3.357 7.5-7.5v-7.862c0-4.143-3.358-7.5-7.5-7.5z"/><path d="m265.018 219.833c-5.873 3.635-11.113 3.635-16.986 0-3.519-2.18-8.144-1.094-10.324 2.43-2.181 3.521-1.093 8.145 2.43 10.324 5.36 3.318 10.874 4.978 16.388 4.978s11.027-1.659 16.388-4.978c3.522-2.18 4.61-6.803 2.43-10.324-2.182-3.522-6.804-4.61-10.326-2.43z"/><path d="m373.884 263.608h48.88c3.582 21.219 22.077 37.437 44.3 37.437 24.778 0 44.937-20.158 44.937-44.937s-20.158-44.938-44.937-44.938c-22.222 0-40.718 16.218-44.3 37.438h-48.88c-4.143 0-7.5 3.357-7.5 7.5s3.357 7.5 7.5 7.5zm93.179-37.438c16.507 0 29.937 13.43 29.937 29.938 0 16.507-13.43 29.937-29.937 29.937-16.508 0-29.938-13.43-29.938-29.937.001-16.508 13.431-29.938 29.938-29.938z"/><path d="m439.021 428.565-34.563-34.563c-2.93-2.928-7.678-2.928-10.607 0-2.929 2.93-2.929 7.678 0 10.607l34.562 34.562c-12.471 17.537-10.86 42.083 4.853 57.797 17.523 17.521 46.03 17.52 63.552 0 17.521-17.521 17.521-46.03 0-63.552-15.713-15.71-40.258-17.321-57.797-4.851zm47.189 57.796c-11.673 11.675-30.666 11.673-42.337 0-11.673-11.672-11.673-30.665 0-42.337 11.67-11.672 30.665-11.674 42.337 0 11.673 11.672 11.673 30.666 0 42.337z"/><path d="m107.391 393.849-34.574 34.574c-4.109-2.918-8.684-5.157-13.535-6.555-3.98-1.143-8.137 1.148-9.284 5.13-1.146 3.979 1.149 8.137 5.13 9.284 12.346 3.559 21.616 14.96 21.616 28.759 0 26.601-32.372 39.902-51.106 21.168-5.654-5.653-8.768-13.171-8.768-21.168 0-10.721 5.605-20.202 14.329-25.545 3.532-2.164 4.642-6.781 2.478-10.313s-6.782-4.642-10.313-2.478c-13.128 8.042-21.494 22.301-21.494 38.335 0 24.992 20.245 44.918 44.937 44.916 24.696-.002 44.938-19.926 44.938-44.916 0-9.463-2.917-18.473-8.306-26.024l34.56-34.56c2.929-2.93 2.929-7.678 0-10.607-2.931-2.928-7.679-2.928-10.608 0z"/><path d="m145.616 255.892c0-4.143-3.357-7.5-7.5-7.5h-48.879c-3.582-21.219-22.077-37.438-44.3-37.438-24.778 0-44.937 20.159-44.937 44.938s20.159 44.937 44.938 44.937c22.222 0 40.718-16.218 44.3-37.437h48.879c4.142 0 7.499-3.358 7.499-7.5zm-100.678 29.936c-16.508 0-29.938-13.429-29.938-29.936 0-16.508 13.43-29.938 29.938-29.938s29.938 13.43 29.938 29.938c-.001 16.507-13.431 29.936-29.938 29.936z"/><path d="m72.98 83.434 34.563 34.563c1.465 1.464 3.385 2.196 5.304 2.196s3.839-.732 5.304-2.196c2.929-2.93 2.929-7.678 0-10.607l-34.563-34.564c12.471-17.537 10.86-42.083-4.853-57.797-17.521-17.518-46.029-17.52-63.552 0-17.521 17.521-17.521 46.03 0 63.552 15.662 15.66 40.177 17.382 57.797 4.853zm-47.189-57.797c11.67-11.672 30.665-11.674 42.337 0 11.673 11.672 11.673 30.665 0 42.337-11.672 11.675-30.665 11.673-42.337 0-11.673-11.672-11.673-30.665 0-42.337z"/><path d="m399.307 120.346c1.919 0 3.839-.732 5.304-2.196l34.551-34.552c2.952 2.103 9.893 6.138 13.484 6.138 3.085 0 5.977-1.919 7.067-4.992 1.387-3.903-.654-8.191-4.558-9.577-4.207-1.494-7.951-3.862-11.129-7.041-11.673-11.672-11.673-30.664-.001-42.337 11.674-11.672 30.666-11.673 42.338-.001 14.207 14.208 10.644 38.304-7.275 47.699-3.669 1.923-5.084 6.456-3.161 10.124 1.921 3.669 6.454 5.086 10.124 3.161 26.928-14.112 32.222-50.286 10.919-71.591-17.521-17.52-46.03-17.519-63.551.001-15.713 15.714-17.323 40.259-4.853 57.796l-34.562 34.563c-2.929 2.93-2.929 7.678 0 10.607 1.464 1.465 3.384 2.198 5.303 2.198z"/></g></svg>